<?xml version="1.0" encoding="UTF-8" standalone="no"?>
<!-- Created with Inkscape (http://www.inkscape.org/) -->

<svg
   width="87.434464mm"
   height="35.872692mm"
   viewBox="0 0 87.434464 35.872692"
   version="1.1"
   id="svg5"
   xmlns:inkscape="http://www.inkscape.org/namespaces/inkscape"
   xmlns:sodipodi="http://sodipodi.sourceforge.net/DTD/sodipodi-0.dtd"
   xmlns="http://www.w3.org/2000/svg"
   xmlns:svg="http://www.w3.org/2000/svg">
  <sodipodi:namedview
     id="namedview7"
     pagecolor="#ffffff"
     bordercolor="#000000"
     borderopacity="0.25"
     inkscape:showpageshadow="2"
     inkscape:pageopacity="0.0"
     inkscape:pagecheckerboard="0"
     inkscape:deskcolor="#d1d1d1"
     inkscape:document-units="mm"
     showgrid="false"
     inkscape:lockguides="false" />
  <defs
     id="defs2">
    <inkscape:path-effect
       effect="fillet_chamfer"
       id="path-effect7177"
       is_visible="true"
       lpeversion="1"
       nodesatellites_param="F,0,0,1,0,0,0,1 @ F,0,0,1,0,0,0,1 @ F,0,0,1,0,10.31875,0,1 @ F,0,0,1,0,10.31875,0,1"
       unit="px"
       method="auto"
       mode="F"
       radius="39"
       chamfer_steps="1"
       flexible="false"
       use_knot_distance="true"
       apply_no_radius="true"
       apply_with_radius="true"
       only_selected="false"
       hide_knots="false" />
    <inkscape:path-effect
       effect="fillet_chamfer"
       id="path-effect5855"
       is_visible="true"
       lpeversion="1"
       nodesatellites_param="F,0,0,1,0,0,0,1 @ F,0,0,1,0,0,0,1 @ F,0,0,1,0,10.31875,0,1 @ F,0,0,1,0,10.31875,0,1"
       unit="px"
       method="auto"
       mode="F"
       radius="39"
       chamfer_steps="1"
       flexible="false"
       use_knot_distance="true"
       apply_no_radius="true"
       apply_with_radius="true"
       only_selected="false"
       hide_knots="false" />
  </defs>
  <g
     inkscape:label="Layer 1"
     inkscape:groupmode="layer"
     id="layer1"
     transform="translate(-1.4379883e-7,-46.939898)">
    <g
       id="g7206"
       transform="translate(-29.234516,-59.7)">
      <path
         style="fill:#ececec;fill-opacity:1;stroke:none;stroke-width:2;stroke-dasharray:none;stroke-opacity:1"
         d="m 41.023598,141.5126 17.438166,-34.24907 25.969065,0.37637 -13.29817,33.8727 z"
         id="path8559" />
      <path
         style="fill:#e4e4e4;fill-opacity:1;stroke:none;stroke-width:2;stroke-dasharray:none;stroke-opacity:1"
         d="m 66.114482,141.5126 17.187259,-33.74725 32.241789,-0.12545 -0.12546,25.71816 c 0,0 -1.25454,7.90363 -9.03272,8.02908 -7.77817,0.12546 -40.270868,0.12546 -40.270868,0.12546 z"
         id="path8289" />
      <path
         style="fill:#dedede;fill-opacity:1;stroke:none;stroke-width:2;stroke-dasharray:none;stroke-opacity:1"
         d="m 91.958095,140.88532 17.312715,-33.99815 6.52363,-0.12545 -0.12546,26.59634 c 0,0 -1.38,7.52726 -9.28363,7.90363 -7.903625,0.37636 -14.427255,-0.37637 -14.427255,-0.37637 z"
         id="path8363" />
      <path
         style="fill:none;fill-opacity:1;stroke:#d63838;stroke-width:2;stroke-dasharray:none;stroke-opacity:1"
         id="rect5853"
         width="85.434464"
         height="33.872692"
         x="30.234516"
         y="107.6399"
         ry="0"
         inkscape:path-effect="#path-effect5855"
         d="m 30.234516,107.6399 h 85.434464 v 23.55394 a 10.31875,10.31875 135 0 1 -10.31875,10.31875 H 40.553266 a 10.31875,10.31875 45 0 1 -10.31875,-10.31875 z"
         sodipodi:type="rect" />
      <path
         style="fill:none;fill-opacity:1;stroke:#d63838;stroke-width:2;stroke-dasharray:none;stroke-opacity:1"
         d="M 73.13993,141.5126 V 107.6399 Z"
         id="path7193" />
    </g>
    <g
       id="g7202"
       transform="translate(-29.234032,-59.809741)"
       inkscape:export-filename="g7202.svg"
       inkscape:export-xdpi="96"
       inkscape:export-ydpi="96">
      <path
         style="fill:#ececec;fill-opacity:1;stroke:none;stroke-width:2;stroke-dasharray:none;stroke-opacity:1"
         d="M 58.461763,107.63989 75.272658,74.519928 100.86536,73.892657 93.463548,107.26353 Z"
         id="path9068" />
      <path
         style="fill:#e4e4e4;fill-opacity:1;stroke:none;stroke-width:2;stroke-dasharray:none;stroke-opacity:1"
         d="M 83.274391,107.6399 100.46164,73.892658 h 5.89636 c 0,0 8.65636,2.509088 8.65636,8.029083 0,5.519994 0,25.969069 0,25.969069 z"
         id="path8292" />
      <path
         style="fill:none;fill-opacity:1;stroke:#d63838;stroke-width:2.22245;stroke-dasharray:none;stroke-opacity:1"
         d="M 73.100019,73.157864 54.947634,72.31642 c 0,0 -11.173477,-9.478682 -3.151454,-11.239313 7.941666,-1.742995 21.303839,12.080757 21.303839,12.080757 z"
         id="path3943"
         sodipodi:nodetypes="ccsc" />
      <path
         style="fill:#dedede;fill-opacity:1;stroke:none;stroke-width:2;stroke-dasharray:none;stroke-opacity:1"
         d="m 109.14535,107.6399 7.1509,-14.050897 -0.75272,14.427257 z"
         id="path8556" />
      <path
         style="fill:none;fill-opacity:1;stroke:#d63838;stroke-width:2.22245;stroke-dasharray:none;stroke-opacity:1"
         d="m 72.859613,73.220591 18.152385,-0.841444 c 0,0 11.173482,-9.478682 3.151454,-11.239313 -7.941666,-1.742995 -21.303839,12.080757 -21.303839,12.080757 z"
         id="path4120"
         sodipodi:nodetypes="ccsc" />
      <text
         xml:space="preserve"
         style="font-style:normal;font-variant:normal;font-weight:normal;font-stretch:normal;font-size:7.76111px;font-family:Calibri;-inkscape-font-specification:'Calibri, Normal';font-variant-ligatures:none;font-variant-caps:normal;font-variant-numeric:normal;font-variant-east-asian:normal;fill:#ff5454;fill-opacity:1;stroke:none;stroke-width:2.265;stroke-dasharray:none;stroke-opacity:1"
         x="34.354187"
         y="103.87628"
         id="text3255"><tspan
           sodipodi:role="line"
           id="tspan10075"
           x="34.354187"
           y="103.87628">Pour Eloїse</tspan></text>
      <path
         style="fill:none;fill-opacity:1;stroke:#d63838;stroke-width:2;stroke-dasharray:none;stroke-opacity:1"
         id="path7173"
         width="85.434464"
         height="33.872692"
         x="30.234516"
         y="-107.51445"
         ry="0"
         inkscape:path-effect="#path-effect7177"
         d="m 30.234516,-107.51445 h 85.434464 v 23.553942 a 10.31875,10.31875 135 0 1 -10.31875,10.31875 H 40.553266 a 10.31875,10.31875 45 0 1 -10.31875,-10.31875 z"
         sodipodi:type="rect"
         transform="scale(1,-1)" />
      <path
         style="fill:none;fill-opacity:1;stroke:#d63838;stroke-width:2;stroke-dasharray:none;stroke-opacity:1"
         d="M 73.139931,73.516293 V 108.01626 Z"
         id="path7189" />
    </g>
  </g>
</svg>
